<svg width="119" height="39" viewBox="0 0 119 39" fill="none" xmlns="http://www.w3.org/2000/svg">
<path d="M118.324 14.5889C117.389 10.6537 115.084 7.19176 111.83 4.83886C108.657 2.57901 104.861 1.391 100.982 1.44441H83.9971V4.3333H88.9927L88.279 39H98.4843C100.712 38.9985 102.935 38.7808 105.121 38.35C107.536 37.9697 109.832 37.0305 111.83 35.6055C113.641 34.3253 115.176 32.6854 116.342 30.7858C117.507 28.8862 118.279 26.7664 118.609 24.5555C118.681 23.9777 119.608 18.7777 118.324 14.5889ZM116.04 22.8944C115.327 28.1666 113.328 30.9833 110.759 33.0055C109.76 33.8 105.335 36.1111 97.9847 36.1111H91.8473V4.3333H101.125C104.585 4.27495 107.969 5.36579 110.759 7.43886C112.104 8.41577 113.244 9.65278 114.114 11.0784C114.984 12.504 115.566 14.0899 115.826 15.7444C116.754 20.2222 116.04 22.8944 116.04 22.8944Z" fill="#3AB2B4"/>
<path d="M52.8818 0C42.4625 0 33.97 8.73889 33.97 19.5C33.97 30.2611 42.4625 39 52.8818 39C63.3012 39 71.7937 30.2611 71.7937 19.5C71.7937 8.73889 63.3012 0 52.8818 0ZM52.8818 36.1111C48.5772 36.0592 44.4687 34.2809 41.4583 31.1666C38.4478 28.0523 36.7813 23.8564 36.8246 19.5C36.7776 17.336 37.1582 15.1843 37.9441 13.1711C38.7299 11.158 39.9052 9.32392 41.4009 7.77664C42.8966 6.22936 44.6826 5 46.6541 4.16069C48.6256 3.32139 50.743 2.88905 52.8818 2.88905C55.0207 2.88905 57.138 3.32139 59.1096 4.16069C61.0811 5 62.8671 6.22936 64.3628 7.77664C65.8585 9.32392 67.0338 11.158 67.8196 13.1711C68.6055 15.1843 68.9861 17.336 68.9391 19.5C68.9823 23.8564 67.3159 28.0523 64.3054 31.1666C61.295 34.2809 57.1865 36.0591 52.8818 36.1111Z" fill="#3AB2B4"/>
<path d="M0 4.18891V1.66113H6.99382L19.2687 34.2334L30.3303 4.18891H25.9057V1.66113H37.8951V4.18891H32.8281L20.2678 39H17.6986L4.78149 4.18891H0Z" fill="#3AB2B4"/>
<path d="M79.3333 1V39H76.282V1H79.3333Z" fill="#3AB2B4"/>
</svg>
