<svg width="66" height="49" viewBox="0 0 66 49" fill="none" xmlns="http://www.w3.org/2000/svg">
<path d="M4.19377 0.456146H26.7378C28.7665 0.456146 30.4169 2.56983 30.4169 5.16793V5.26818H31.7476C33.7762 5.26818 35.4266 7.38186 35.4266 9.97996V22.9123H38.0881V18C38.0881 15.4019 39.7385 13.2882 41.7672 13.2882H61.8063C63.8349 13.2882 65.4854 15.4019 65.4854 18V30.8321C65.4854 33.4302 63.8349 35.5439 61.8063 35.5439H41.7672C39.7385 35.5439 38.0881 33.4302 38.0881 30.8321V25.9198H35.4266V38.8522C35.4266 41.4503 33.7762 43.5639 31.7476 43.5639H30.4169V43.6642C30.4169 46.2623 28.7665 48.376 26.7378 48.376H4.19377C2.16512 48.376 0.514709 46.2623 0.514709 43.6642V40.4562C0.514709 37.8581 2.16512 35.7444 4.19377 35.7444H26.7378C28.7665 35.7444 30.4169 37.8581 30.4169 40.4562V40.5564H31.7476C32.4814 40.5564 33.0783 39.7919 33.0783 38.8522V25.9198H30.4169V26.0201C30.4169 28.6182 28.7665 30.7318 26.7378 30.7318H4.19377C2.16512 30.7318 0.514709 28.6182 0.514709 26.0201V22.812C0.514709 20.214 2.16512 18.1003 4.19377 18.1003H26.7378C28.7665 18.1003 30.4169 20.214 30.4169 22.812V22.9123H33.0783V9.97996C33.0783 9.04021 32.4814 8.2757 31.7476 8.2757H30.4169V8.37595C30.4169 10.974 28.7665 13.0877 26.7378 13.0877H4.19377C2.16512 13.0877 0.514709 10.974 0.514709 8.37595V5.16793C0.514709 2.56983 2.16512 0.456146 4.19377 0.456146ZM40.4364 30.8321C40.4364 31.7719 41.0334 32.5364 41.7672 32.5364H61.8063C62.5401 32.5364 63.137 31.7719 63.137 30.8321V18C63.137 17.0603 62.5401 16.2958 61.8063 16.2958H41.7672C41.0334 16.2958 40.4364 17.0603 40.4364 18V30.8321ZM28.0685 40.4562C28.0685 39.5164 27.4716 38.7519 26.7378 38.7519H4.19377C3.46 38.7519 2.86305 39.5164 2.86305 40.4562V43.6642C2.86305 44.6039 3.46 45.3685 4.19377 45.3685H26.7378C27.4716 45.3685 28.0685 44.6039 28.0685 43.6642V40.4562ZM28.0685 22.812C28.0685 21.8723 27.4716 21.1078 26.7378 21.1078H4.19377C3.46 21.1078 2.86305 21.8723 2.86305 22.812V26.0201C2.86305 26.9598 3.46 27.7243 4.19377 27.7243H26.7378C27.4716 27.7243 28.0685 26.9598 28.0685 26.0201V22.812ZM2.86305 8.37595C2.86305 9.3157 3.46 10.0802 4.19377 10.0802H26.7378C27.4716 10.0802 28.0685 9.3157 28.0685 8.37595V5.16793C28.0685 4.22818 27.4716 3.46367 26.7378 3.46367H4.19377C3.46 3.46367 2.86305 4.22818 2.86305 5.16793V8.37595Z" fill="black"/>
</svg>
