<svg width="80" height="80" viewBox="0 0 80 80" fill="none" xmlns="http://www.w3.org/2000/svg">
<path d="M6.18395 0H73.816C77.2258 0 80 3.55288 80 7.9198V72.0802C80 76.4471 77.2258 80 73.816 80H6.18395C2.77417 80 0 76.4471 0 72.0802V7.9198C0 3.55288 2.77417 0 6.18395 0ZM73.816 3.00752H6.18395C4.06904 3.00752 2.34834 5.21123 2.34834 7.9198V12.8321H77.6517V7.9198C77.6517 5.21123 75.931 3.00752 73.816 3.00752ZM6.18395 76.9925H73.816C75.931 76.9925 77.6517 74.7888 77.6517 72.0802V15.8396H2.34834V72.0802C2.34834 74.7888 4.06904 76.9925 6.18395 76.9925Z" fill="black"/>
</svg>
