<svg width="80" height="80" viewBox="0 0 80 80" fill="none" xmlns="http://www.w3.org/2000/svg">
<path d="M11.1938 22.4561H33.7378C35.7665 22.4561 37.4169 24.5698 37.4169 27.1679V27.2682H38.7476C40.7762 27.2682 42.4266 29.3819 42.4266 31.98V44.9123H45.0881V40C45.0881 37.4019 46.7385 35.2882 48.7672 35.2882H68.8063C70.8349 35.2882 72.4854 37.4019 72.4854 40V52.8321C72.4854 55.4302 70.8349 57.5439 68.8063 57.5439H48.7672C46.7385 57.5439 45.0881 55.4302 45.0881 52.8321V47.9198H42.4266V60.8522C42.4266 63.4503 40.7762 65.5639 38.7476 65.5639H37.4169V65.6642C37.4169 68.2623 35.7665 70.376 33.7378 70.376H11.1938C9.16512 70.376 7.51471 68.2623 7.51471 65.6642V62.4562C7.51471 59.8581 9.16512 57.7444 11.1938 57.7444H33.7378C35.7665 57.7444 37.4169 59.8581 37.4169 62.4562V62.5564H38.7476C39.4814 62.5564 40.0783 61.7919 40.0783 60.8522V47.9198H37.4169V48.0201C37.4169 50.6182 35.7665 52.7318 33.7378 52.7318H11.1938C9.16512 52.7318 7.51471 50.6182 7.51471 48.0201V44.812C7.51471 42.214 9.16512 40.1003 11.1938 40.1003H33.7378C35.7665 40.1003 37.4169 42.214 37.4169 44.812V44.9123H40.0783V31.98C40.0783 31.0402 39.4814 30.2757 38.7476 30.2757H37.4169V30.3759C37.4169 32.974 35.7665 35.0877 33.7378 35.0877H11.1938C9.16512 35.0877 7.51471 32.974 7.51471 30.3759V27.1679C7.51471 24.5698 9.16512 22.4561 11.1938 22.4561ZM47.4364 52.8321C47.4364 53.7719 48.0334 54.5364 48.7672 54.5364H68.8063C69.5401 54.5364 70.137 53.7719 70.137 52.8321V40C70.137 39.0603 69.5401 38.2958 68.8063 38.2958H48.7672C48.0334 38.2958 47.4364 39.0603 47.4364 40V52.8321ZM35.0685 62.4562C35.0685 61.5164 34.4716 60.7519 33.7378 60.7519H11.1938C10.46 60.7519 9.86305 61.5164 9.86305 62.4562V65.6642C9.86305 66.6039 10.46 67.3685 11.1938 67.3685H33.7378C34.4716 67.3685 35.0685 66.6039 35.0685 65.6642V62.4562ZM35.0685 44.812C35.0685 43.8723 34.4716 43.1078 33.7378 43.1078H11.1938C10.46 43.1078 9.86305 43.8723 9.86305 44.812V48.0201C9.86305 48.9598 10.46 49.7243 11.1938 49.7243H33.7378C34.4716 49.7243 35.0685 48.9598 35.0685 48.0201V44.812ZM9.86305 30.3759C9.86305 31.3157 10.46 32.0802 11.1938 32.0802H33.7378C34.4716 32.0802 35.0685 31.3157 35.0685 30.3759V27.1679C35.0685 26.2282 34.4716 25.4637 33.7378 25.4637H11.1938C10.46 25.4637 9.86305 26.2282 9.86305 27.1679V30.3759Z" fill="black"/>
<path d="M6.18395 0H73.816C77.2258 0 80 3.55288 80 7.9198V72.0802C80 76.4471 77.2258 80 73.816 80H6.18395C2.77417 80 0 76.4471 0 72.0802V7.9198C0 3.55288 2.77417 0 6.18395 0ZM73.816 3.00752H6.18395C4.06904 3.00752 2.34834 5.21123 2.34834 7.9198V12.8321H77.6517V7.9198C77.6517 5.21123 75.931 3.00752 73.816 3.00752ZM6.18395 76.9925H73.816C75.931 76.9925 77.6517 74.7888 77.6517 72.0802V15.8396H2.34834V72.0802C2.34834 74.7888 4.06904 76.9925 6.18395 76.9925Z" fill="black"/>
<path d="M53.1001 41.5124V42.0124H53.6001H54.6722L58.4048 51.4072L58.5301 51.7226H58.8694H59.6222H59.9646L60.0884 51.4033L61.9703 46.5482L63.7284 42.0124H64.8915H65.3915V41.5124V40.7997V40.2997H64.8915H61.3159H60.8159V40.7997V41.5124V42.0124H61.3159H61.8993L59.3337 48.5358L56.1338 40.6125L56.0075 40.2997H55.6702H53.6001H53.1001V40.7997V41.5124Z" fill="url(#paint0_linear)" stroke="black"/>
<defs>
<linearGradient id="paint0_linear" x1="59.2458" y1="40.7997" x2="59.2458" y2="51.2226" gradientUnits="userSpaceOnUse">
<stop/>
</linearGradient>
</defs>
</svg>
